<?xml version="1.0" encoding="UTF-8"?>
<svg xmlns="http://www.w3.org/2000/svg" xmlns:xlink="http://www.w3.org/1999/xlink" width="139px" height="34px" viewBox="0 0 139 34" version="1.1">
<g id="surface1">
<path style=" stroke:none;fill-rule:nonzero;fill:rgb(0%,0%,0%);fill-opacity:1;" d="M 85.910156 6.761719 C 87.882812 6.761719 89.859375 6.761719 91.894531 6.761719 C 91.894531 12.117188 91.894531 17.472656 91.894531 22.988281 C 92.46875 22.988281 93.042969 22.988281 93.632812 22.988281 C 93.632812 23.433594 93.632812 23.882812 93.632812 24.339844 C 91.65625 24.339844 89.683594 24.339844 87.648438 24.339844 C 87.582031 24.085938 87.519531 23.832031 87.453125 23.566406 C 87.273438 23.722656 87.097656 23.878906 86.910156 24.039062 C 85.820312 24.984375 84.378906 24.847656 83.007812 24.769531 C 81.8125 24.636719 80.863281 24 80.046875 23.144531 C 78.589844 21.222656 78.386719 18.890625 78.695312 16.554688 C 79.035156 14.871094 79.769531 13.75 81.050781 12.636719 C 82.035156 11.992188 83.023438 11.910156 84.171875 11.917969 C 84.371094 11.914062 84.371094 11.914062 84.574219 11.90625 C 85.488281 11.90625 86.101562 12.074219 86.875 12.558594 C 87.066406 12.75 87.257812 12.9375 87.453125 13.136719 C 87.519531 11.480469 87.582031 9.820312 87.648438 8.113281 C 87.074219 8.113281 86.5 8.113281 85.910156 8.113281 C 85.910156 7.667969 85.910156 7.222656 85.910156 6.761719 Z M 83.980469 14.441406 C 83.222656 15.667969 83.359375 16.910156 83.351562 18.316406 C 83.347656 18.539062 83.34375 18.765625 83.339844 18.996094 C 83.332031 20.414062 83.390625 21.421875 84.253906 22.585938 C 84.773438 22.945312 85.253906 22.898438 85.867188 22.875 C 86.578125 22.742188 86.851562 22.410156 87.261719 21.828125 C 87.6875 20.675781 87.710938 19.597656 87.707031 18.375 C 87.710938 18.195312 87.714844 18.011719 87.71875 17.824219 C 87.71875 16.503906 87.597656 15.160156 86.753906 14.089844 C 85.769531 13.699219 84.722656 13.585938 83.980469 14.441406 Z M 83.980469 14.441406 "/>
<path style=" stroke:none;fill-rule:nonzero;fill:rgb(0%,0%,0%);fill-opacity:1;" d="M 35.136719 8.691406 C 35.136719 10.03125 35.136719 11.371094 35.136719 12.75 C 34.5625 12.75 33.988281 12.75 33.398438 12.75 C 33.34375 12.597656 33.289062 12.441406 33.234375 12.285156 C 32.738281 10.96875 32.292969 10.027344 31.082031 9.273438 C 30.96875 9.199219 30.859375 9.128906 30.742188 9.054688 C 30.117188 8.8125 29.554688 8.828125 28.886719 8.824219 C 28.636719 8.824219 28.390625 8.820312 28.132812 8.816406 C 27.089844 8.917969 26.320312 9.277344 25.640625 10.082031 C 23.800781 12.363281 24.167969 15.800781 24.324219 18.546875 C 24.519531 20.152344 25.160156 21.582031 26.449219 22.601562 C 27.21875 23.003906 27.890625 23.046875 28.753906 23.050781 C 29.097656 23.054688 29.097656 23.054688 29.445312 23.058594 C 30.453125 22.953125 31.070312 22.613281 31.78125 21.902344 C 32.347656 21.175781 32.667969 20.359375 33.011719 19.511719 C 33.839844 19.511719 34.667969 19.511719 35.523438 19.511719 C 35.035156 21.457031 34.296875 22.667969 32.707031 23.890625 C 31.289062 24.667969 29.929688 24.828125 28.332031 24.8125 C 28.039062 24.808594 28.039062 24.808594 27.738281 24.808594 C 25.269531 24.753906 23.207031 24.136719 21.394531 22.390625 C 19.3125 20.167969 18.996094 17.863281 19.054688 14.917969 C 19.144531 12.8125 19.78125 11.183594 21.234375 9.660156 C 21.351562 9.535156 21.464844 9.414062 21.585938 9.285156 C 25.09375 5.886719 31.160156 6.703125 35.136719 8.691406 Z M 35.136719 8.691406 "/>
<path style=" stroke:none;fill-rule:nonzero;fill:rgb(0%,0%,0%);fill-opacity:1;" d="M 61.390625 12.363281 C 63.367188 12.363281 65.339844 12.363281 67.375 12.363281 C 67.386719 12.992188 67.394531 13.625 67.40625 14.273438 C 67.414062 14.886719 67.425781 15.496094 67.4375 16.105469 C 67.445312 16.53125 67.453125 16.957031 67.457031 17.378906 C 67.464844 17.992188 67.476562 18.601562 67.488281 19.210938 C 67.492188 19.402344 67.492188 19.589844 67.496094 19.785156 C 67.484375 21.207031 67.484375 21.207031 68.148438 22.410156 C 68.964844 22.511719 69.660156 22.5625 70.355469 22.09375 C 71.019531 21.085938 71.105469 20.066406 71.125 18.886719 C 71.128906 18.738281 71.132812 18.589844 71.136719 18.433594 C 71.148438 17.964844 71.15625 17.496094 71.164062 17.023438 C 71.171875 16.703125 71.179688 16.382812 71.1875 16.0625 C 71.207031 15.28125 71.222656 14.5 71.238281 13.714844 C 70.726562 13.714844 70.21875 13.714844 69.691406 13.714844 C 69.691406 13.269531 69.691406 12.824219 69.691406 12.363281 C 71.605469 12.363281 73.515625 12.363281 75.484375 12.363281 C 75.484375 15.871094 75.484375 19.375 75.484375 22.988281 C 76.058594 22.988281 76.632812 22.988281 77.222656 22.988281 C 77.222656 23.433594 77.222656 23.882812 77.222656 24.339844 C 75.246094 24.339844 73.273438 24.339844 71.238281 24.339844 C 71.171875 24.023438 71.109375 23.703125 71.042969 23.375 C 70.875 23.527344 70.703125 23.679688 70.527344 23.832031 C 69.574219 24.675781 68.628906 24.792969 67.386719 24.789062 C 67.1875 24.792969 67.1875 24.792969 66.984375 24.796875 C 65.777344 24.796875 65.023438 24.480469 64.15625 23.652344 C 62.78125 21.820312 63.0625 19.429688 63.09375 17.265625 C 63.097656 16.921875 63.097656 16.574219 63.101562 16.230469 C 63.105469 15.394531 63.117188 14.554688 63.128906 13.714844 C 62.554688 13.714844 61.980469 13.714844 61.390625 13.714844 C 61.390625 13.269531 61.390625 12.824219 61.390625 12.363281 Z M 61.390625 12.363281 "/>
<path style=" stroke:none;fill-rule:nonzero;fill:rgb(0%,0%,0%);fill-opacity:1;" d="M 101.742188 7.535156 C 104.417969 7.535156 107.089844 7.535156 109.847656 7.535156 C 109.847656 7.980469 109.847656 8.425781 109.847656 8.886719 C 109.339844 8.886719 108.828125 8.886719 108.304688 8.886719 C 108.347656 8.988281 108.386719 9.089844 108.429688 9.195312 C 108.871094 10.269531 109.308594 11.339844 109.746094 12.410156 C 109.910156 12.8125 110.074219 13.210938 110.234375 13.609375 C 110.472656 14.183594 110.707031 14.761719 110.945312 15.339844 C 111.015625 15.515625 111.085938 15.691406 111.160156 15.871094 C 111.628906 17.019531 112.09375 18.167969 112.550781 19.316406 C 112.859375 18.855469 113.0625 18.480469 113.269531 17.976562 C 113.332031 17.824219 113.398438 17.671875 113.460938 17.515625 C 113.527344 17.351562 113.597656 17.1875 113.664062 17.015625 C 113.738281 16.847656 113.808594 16.675781 113.878906 16.5 C 114.105469 15.957031 114.328125 15.410156 114.554688 14.863281 C 114.703125 14.5 114.855469 14.136719 115.003906 13.773438 C 115.675781 12.148438 116.339844 10.519531 116.992188 8.886719 C 116.355469 8.886719 115.71875 8.886719 115.0625 8.886719 C 115.0625 8.441406 115.0625 7.992188 115.0625 7.535156 C 116.78125 7.535156 118.5 7.535156 120.273438 7.535156 C 120.273438 7.980469 120.273438 8.425781 120.273438 8.886719 C 119.828125 8.886719 119.382812 8.886719 118.921875 8.886719 C 118.855469 9.109375 118.785156 9.328125 118.714844 9.558594 C 118.234375 11.003906 117.617188 12.398438 117.027344 13.800781 C 116.769531 14.417969 116.507812 15.039062 116.25 15.65625 C 116.183594 15.8125 116.117188 15.972656 116.050781 16.132812 C 115.582031 17.25 115.121094 18.371094 114.664062 19.492188 C 114.570312 19.71875 114.570312 19.71875 114.472656 19.953125 C 114.230469 20.542969 113.988281 21.132812 113.75 21.722656 C 113.582031 22.128906 113.417969 22.53125 113.253906 22.9375 C 113.160156 23.167969 113.066406 23.394531 112.96875 23.632812 C 112.746094 24.148438 112.746094 24.148438 112.550781 24.339844 C 112.0625 24.355469 111.578125 24.359375 111.089844 24.351562 C 110.886719 24.351562 110.886719 24.351562 110.675781 24.351562 C 110.335938 24.347656 109.996094 24.34375 109.65625 24.339844 C 109.128906 23.3125 108.652344 22.28125 108.21875 21.214844 C 108.160156 21.066406 108.097656 20.917969 108.035156 20.765625 C 107.839844 20.28125 107.644531 19.800781 107.449219 19.316406 C 107.3125 18.984375 107.175781 18.648438 107.039062 18.316406 C 106.621094 17.296875 106.207031 16.28125 105.792969 15.261719 C 105.664062 14.941406 105.535156 14.625 105.40625 14.304688 C 104.695312 12.5625 103.988281 10.820312 103.285156 9.078125 C 102.773438 9.015625 102.265625 8.953125 101.742188 8.886719 C 101.742188 8.441406 101.742188 7.992188 101.742188 7.535156 Z M 101.742188 7.535156 "/>
<path style=" stroke:none;fill-rule:nonzero;fill:rgb(0%,0%,0%);fill-opacity:1;" d="M 57.722656 12.941406 C 59.074219 13.914062 59.902344 15.304688 60.1875 16.945312 C 60.40625 19.023438 60.222656 20.929688 58.882812 22.601562 C 57.625 23.972656 56.320312 24.6875 54.457031 24.800781 C 52.179688 24.878906 50.203125 24.804688 48.371094 23.300781 C 46.9375 21.925781 46.472656 20.523438 46.339844 18.578125 C 46.320312 16.667969 46.8125 14.984375 48.105469 13.570312 C 50.476562 11.332031 55.058594 11.277344 57.722656 12.941406 Z M 51.546875 14.488281 C 51.039062 15.761719 51.097656 16.976562 51.097656 18.328125 C 51.097656 18.566406 51.09375 18.808594 51.089844 19.054688 C 51.089844 20.503906 51.097656 21.816406 52.050781 22.988281 C 52.78125 23.296875 53.472656 23.308594 54.25 23.183594 C 54.917969 22.753906 55.121094 22.261719 55.328125 21.507812 C 55.507812 20.472656 55.46875 19.414062 55.46875 18.363281 C 55.46875 18.125 55.472656 17.886719 55.476562 17.640625 C 55.492188 15.566406 55.492188 15.566406 54.542969 13.777344 C 54.050781 13.351562 53.566406 13.421875 52.941406 13.441406 C 52.234375 13.574219 51.953125 13.917969 51.546875 14.488281 Z M 51.546875 14.488281 "/>
<path style=" stroke:none;fill-rule:nonzero;fill:rgb(0%,0%,0%);fill-opacity:1;" d="M 37.453125 6.761719 C 39.363281 6.761719 41.273438 6.761719 43.246094 6.761719 C 43.246094 12.117188 43.246094 17.472656 43.246094 22.988281 C 43.816406 22.988281 44.390625 22.988281 44.980469 22.988281 C 44.980469 23.433594 44.980469 23.882812 44.980469 24.339844 C 42.496094 24.339844 40.011719 24.339844 37.453125 24.339844 C 37.453125 23.894531 37.453125 23.449219 37.453125 22.988281 C 37.960938 22.988281 38.472656 22.988281 38.996094 22.988281 C 38.996094 18.078125 38.996094 13.171875 38.996094 8.113281 C 38.488281 8.113281 37.976562 8.113281 37.453125 8.113281 C 37.453125 7.667969 37.453125 7.222656 37.453125 6.761719 Z M 37.453125 6.761719 "/>
<path style=" stroke:none;fill-rule:nonzero;fill:rgb(0%,0%,0%);fill-opacity:1;" d="M 95.175781 16.613281 C 97.597656 16.613281 100.019531 16.613281 102.511719 16.613281 C 102.511719 17.632812 102.511719 18.652344 102.511719 19.703125 C 100.089844 19.703125 97.671875 19.703125 95.175781 19.703125 C 95.175781 18.683594 95.175781 17.664062 95.175781 16.613281 Z M 95.175781 16.613281 "/>
</g>
</svg>
