<?xml version="1.0" encoding="UTF-8"?>
<svg version="1.1" xmlns="http://www.w3.org/2000/svg" width="2300" height="2003">
<path d="M0 0 C1.50036301 0.00323273 1.50036301 0.00323273 3.03103638 0.00653076 C81.85783266 0.27758282 159.52384581 26.84492189 220.5 77.3125 C221.30824219 77.97644775 221.30824219 77.97644775 222.1328125 78.65380859 C237.52816679 91.33582289 252.74982723 104.93052804 265.5 120.3125 C265.9439209 120.84262695 266.3878418 121.37275391 266.84521484 121.91894531 C327.57304206 194.60385199 357.72727733 287.38541181 349.5546875 381.91967773 C347.30205071 404.55026669 343.70699284 427.69152147 336.5 449.3125 C337.25804932 449.17150879 338.01609863 449.03051758 338.79711914 448.88525391 C412.73484975 435.2717473 486.87902395 444.20658982 550.26660156 487.23046875 C560.08415391 494.01940237 569.44757304 501.13729755 578.23828125 509.234375 C580.29026416 511.11978935 582.38151954 512.94020033 584.5 514.75 C592.12759989 521.42606831 598.98250174 528.62860358 605.296875 536.5546875 C606.71704641 538.3324198 608.16340172 540.0896969 609.640625 541.8203125 C655.14896327 595.34990463 672.63307258 667.1346708 667.1875 736.0625 C664.98145039 760.98560813 658.66222961 785.08163971 649.5 808.3125 C650.64082031 808.41820312 651.78164062 808.52390625 652.95703125 808.6328125 C657.61964389 809.22420818 661.79675658 810.54616605 666.1875 812.1875 C666.99985107 812.49067139 667.81220215 812.79384277 668.64916992 813.10620117 C710.19950402 829.18700807 743.28915969 860.62896763 761.75 901.125 C779.35559012 941.37197404 780.12507357 987.78799321 764.41796875 1028.79296875 C755.05511747 1051.65526473 741.84158195 1069.97091805 724.5 1087.3125 C723.93539063 1087.92351562 723.37078125 1088.53453125 722.7890625 1089.1640625 C699.67401194 1113.79841215 663.63884116 1128.7550048 630.5 1132.3125 C629.77328293 1132.39477656 629.04656586 1132.47705312 628.29782706 1132.56182291 C617.93657216 1133.58896369 607.57347264 1133.45221838 597.1738739 1133.44113445 C594.99223496 1133.44248205 592.81059625 1133.44426648 590.62895799 1133.44644669 C584.62730567 1133.45117212 578.62566855 1133.44967648 572.6240155 1133.44716892 C566.77039401 1133.44570396 560.9167763 1133.44894786 555.06315572 1133.45203945 C542.9472163 1133.45826727 530.83128045 1133.45974644 518.71533966 1133.45862198 C506.43911881 1133.457497 494.16290099 1133.45853344 481.8866806 1133.46219444 C481.11086524 1133.4624241 480.33504987 1133.46265375 479.53572495 1133.46289036 C476.37583914 1133.46383202 473.21595333 1133.46478771 470.05606753 1133.46576155 C437.09917527 1133.47590359 404.14228471 1133.47896747 371.18539107 1133.47955366 C367.63820561 1133.47961841 364.09102015 1133.47968635 360.54383469 1133.47975707 C359.22343059 1133.47978258 359.22343059 1133.47978258 357.87635165 1133.4798086 C338.36273124 1133.48021719 318.84911115 1133.48240759 299.3354909 1133.48491292 C291.29821282 1133.4859413 283.26093474 1133.48693133 275.22365665 1133.48792917 C274.33557164 1133.48803975 273.44748663 1133.48815034 272.53248995 1133.48826428 C221.64030729 1133.4945884 170.74812484 1133.49871341 119.85594177 1133.49825573 C117.95146563 1133.49823995 116.04698949 1133.49822422 114.14251334 1133.49820852 C105.54415819 1133.49813514 96.94580303 1133.49804697 88.34744788 1133.49795464 C84.51331173 1133.49791351 80.67917559 1133.49787337 76.84503945 1133.49783332 C74.92598431 1133.49781293 73.00692917 1133.49779191 71.08787403 1133.49777026 C10.43162707 1133.49709032 -50.22461405 1133.50440218 -110.88085938 1133.51831055 C-126.15818785 1133.52181171 -141.43551633 1133.52528124 -156.71284485 1133.52857494 C-157.6535943 1133.52877782 -158.59434376 1133.52898069 -159.56360077 1133.52918971 C-188.57313675 1133.53540779 -217.58267225 1133.53917089 -246.59220886 1133.54043293 C-247.95904925 1133.54049286 -247.95904925 1133.54049286 -249.35350257 1133.54055399 C-269.36045766 1133.54140741 -289.36741271 1133.54166842 -309.37436781 1133.54138362 C-316.53396869 1133.54128714 -323.69356957 1133.54123509 -330.85317045 1133.54120489 C-332.63423339 1133.54119697 -334.41529634 1133.54118677 -336.19635928 1133.54117426 C-364.54071758 1133.54099816 -392.88507087 1133.54668721 -421.22942773 1133.55532808 C-449.79328161 1133.56399156 -478.35712857 1133.56615775 -506.92098321 1133.55956676 C-510.87541 1133.55865457 -514.8298368 1133.55781126 -518.78426361 1133.55700874 C-519.55937926 1133.55684866 -520.33449491 1133.55668857 -521.13309891 1133.55652363 C-533.36506282 1133.55417827 -545.59701469 1133.55851046 -557.82897634 1133.56567993 C-569.88143874 1133.57260255 -581.93388351 1133.57229008 -593.98634554 1133.56448779 C-600.42326538 1133.56061295 -606.86014284 1133.5598114 -613.29705966 1133.56794515 C-702.39361986 1133.67297134 -787.2908522 1117.84126738 -858.5 1060.3125 C-859.54401358 1059.48144755 -860.5882668 1058.65069603 -861.6328125 1057.8203125 C-866.97217335 1053.52205265 -872.11194499 1049.03663259 -877.17578125 1044.41796875 C-879.21273925 1042.57272445 -881.28270847 1040.7816833 -883.375 1039 C-891.6926658 1031.74524078 -899.38648762 1023.74162972 -906.5 1015.3125 C-907.29535156 1014.40628906 -908.09070313 1013.50007813 -908.91015625 1012.56640625 C-924.68696634 994.47825149 -938.02256937 974.25838659 -949.46777344 953.19189453 C-950.42624979 951.4467784 -951.41881876 949.72050586 -952.4140625 947.99609375 C-980.46101036 898.19256287 -993.92117395 836.17067342 -991.5 779.3125 C-991.4383667 777.77698486 -991.4383667 777.77698486 -991.37548828 776.21044922 C-989.3539827 730.3875033 -979.48555338 686.17807925 -960.5 644.3125 C-960.14856934 643.52069336 -959.79713867 642.72888672 -959.43505859 641.91308594 C-951.5419783 624.15641253 -941.75524035 607.15764333 -930.5 591.3125 C-930.00951172 590.62124023 -929.51902344 589.92998047 -929.01367188 589.21777344 C-921.05899017 578.06525333 -912.69758638 567.46264262 -903.5 557.3125 C-902.98163574 556.73773926 -902.46327148 556.16297852 -901.92919922 555.57080078 C-892.94299811 545.63275511 -883.72470736 535.99182101 -873.5 527.3125 C-872.59121094 526.51457031 -871.68242188 525.71664062 -870.74609375 524.89453125 C-830.42851308 489.74039616 -781.17154706 465.36729094 -729.5 452.3125 C-728.75685547 452.12187988 -728.01371094 451.93125977 -727.24804688 451.73486328 C-721.88754463 450.37134077 -717.03756307 449.25200852 -711.5 449.3125 C-711.69698486 448.57894287 -711.89396973 447.84538574 -712.09692383 447.08959961 C-726.16059458 393.09491879 -715.41447528 333.14286355 -688.01586914 285.1184082 C-681.17322353 273.48104517 -673.3336265 262.5198912 -664.5 252.3125 C-663.81808594 251.51972656 -663.13617187 250.72695313 -662.43359375 249.91015625 C-651.77653523 237.80075458 -640.45696383 226.91336187 -627.5 217.3125 C-626.38019089 216.46226255 -625.2603991 215.6120023 -624.140625 214.76171875 C-615.10620883 208.0065018 -605.49505382 202.51597497 -595.5 197.3125 C-594.49791504 196.78293701 -594.49791504 196.78293701 -593.47558594 196.24267578 C-562.86744764 180.24957901 -527.76501288 172.82582382 -493.375 173 C-492.2402977 173.00273422 -492.2402977 173.00273422 -491.08267212 173.00552368 C-478.03912881 173.05807099 -465.34176659 173.89410614 -452.5 176.3125 C-451.60104004 176.47878906 -450.70208008 176.64507812 -449.77587891 176.81640625 C-404.73220256 185.43415124 -364.54957715 207.73884171 -332.5 240.3125 C-332.23485596 239.57539795 -331.96971191 238.8382959 -331.6965332 238.07885742 C-317.37081409 198.55721127 -298.28133345 161.89661961 -271.5 129.3125 C-271.06510254 128.77995605 -270.63020508 128.24741211 -270.18212891 127.69873047 C-259.08149755 114.15686437 -247.1909642 100.78923452 -233.890625 89.3671875 C-232.09628661 87.8249947 -230.31757791 86.26458625 -228.546875 84.6953125 C-196.55683489 56.51179105 -158.51808563 34.8066335 -118.5 20.3125 C-117.61989258 19.99297363 -116.73978516 19.67344727 -115.83300781 19.34423828 C-97.06464709 12.61814722 -77.96085161 7.90153351 -58.3125 4.5625 C-57.15113525 4.36382324 -55.98977051 4.16514648 -54.79321289 3.96044922 C-36.57519439 1.0143635 -18.44011883 -0.07219988 0 0 Z " fill="#5DBDEA" transform="translate(1271.5,179.6875)"/>
<path d="M0 0 C30.03 0 60.06 0 91 0 C93.990625 6.991875 96.98125 13.98375 100.0625 21.1875 C107.8061846 39.27096481 115.59726836 57.33319261 123.4375 75.375 C131.00160178 92.78204569 138.54861017 110.19621447 146.0625 127.625 C146.73883484 129.19373367 146.73883484 129.19373367 147.42883301 130.79415894 C149.70389931 136.07143593 151.97852533 141.34890254 154.25292969 146.62646484 C158.43151925 156.32206642 162.61346517 166.01622036 166.79537964 175.71038818 C168.18403237 178.92946159 169.57260873 182.14856794 170.96118164 185.36767578 C177.1897413 199.80670699 183.42251391 214.24391499 189.65756226 228.68014526 C195.17377559 241.4522036 200.68662936 254.22570669 206.1965332 267.00048828 C208.05144231 271.30111536 209.90675811 275.6015666 211.76245117 279.90185547 C215.9139119 289.52284419 220.06355474 299.14459204 224.20315552 308.77069092 C225.98256904 312.90780865 227.76374236 317.04416741 229.54516602 321.18041992 C230.38555159 323.13300909 231.22507933 325.0859677 232.0637207 327.03930664 C233.21352188 329.71723366 234.3661874 332.39390978 235.51953125 335.0703125 C235.86007034 335.86555328 236.20060944 336.66079407 236.5514679 337.48013306 C237.87603923 340.99058417 237.87603923 340.99058417 240 344 C240.50112305 342.84741699 241.00224609 341.69483398 241.51855469 340.50732422 C241.85520645 339.73302567 242.19185822 338.95872711 242.53871155 338.16096497 C243.30973964 336.38759932 244.08076619 334.614233 244.85179138 332.84086609 C247.06041993 327.76100145 249.26907773 322.68114954 251.4777832 317.60131836 C256.04695726 307.09253307 260.61578712 296.58359849 265.18359375 286.07421875 C273.29159098 267.42050268 281.40512621 248.7692435 289.5355835 230.12530518 C295.30291724 216.89966859 301.06027512 203.6697146 306.8125 190.4375 C307.22932037 189.47866913 307.64614075 188.51983826 308.07559204 187.5319519 C311.05065995 180.68808322 314.02536969 173.84405889 317 167 C320.39558951 159.187394 323.79133391 151.37485538 327.1875 143.5625 C327.60456207 142.60310516 328.02162415 141.64371033 328.45132446 140.65524292 C333.78296766 128.39120985 339.12036879 116.12970762 344.46578979 103.87167358 C347.64478972 96.58152106 350.82268451 89.2908868 354 82 C354.3959436 81.09145264 354.79188721 80.18290527 355.1998291 79.24682617 C358.1766883 72.41533476 361.15156988 65.5829846 364.125 58.75 C364.54455963 57.7860733 364.96411926 56.82214661 365.39639282 55.82901001 C369.81368398 45.6775676 374.21610598 35.52019951 378.56640625 25.33984375 C379.09805389 24.09604446 379.09805389 24.09604446 379.64044189 22.82711792 C381.29647396 18.95060955 382.94893723 15.07262922 384.59619141 11.19238281 C385.17217217 9.84048271 385.74817957 8.48859396 386.32421875 7.13671875 C386.82010498 5.96842529 387.31599121 4.80013184 387.8269043 3.59643555 C389 1 389 1 390 0 C392.58639038 -0.09507821 395.1459856 -0.12556376 397.73266602 -0.11352539 C398.94720459 -0.11374443 398.94720459 -0.11374443 400.1862793 -0.1139679 C402.87551508 -0.11326854 405.56468249 -0.1054751 408.25390625 -0.09765625 C410.11335716 -0.09579215 411.97280856 -0.09436821 413.83226013 -0.09336853 C418.73629096 -0.08954271 423.64029236 -0.07971188 428.54431152 -0.06866455 C433.54451092 -0.05845181 438.54471506 -0.05387121 443.54492188 -0.04882812 C453.36329421 -0.03808967 463.18164466 -0.02101248 473 0 C472.42413099 3.2644886 471.65037115 6.13734576 470.3203125 9.17138672 C469.97417404 9.96761948 469.62803558 10.76385223 469.27140808 11.58421326 C468.70393608 12.86897301 468.70393608 12.86897301 468.125 14.1796875 C467.72883987 15.08731339 467.33267975 15.99493927 466.92451477 16.93006897 C465.62094121 19.91374784 464.31046748 22.8943434 463 25.875 C462.08699937 27.96145805 461.17448869 30.04813054 460.26245117 32.13500977 C458.40312011 36.3877762 456.54126033 40.63942092 454.67724609 44.89013672 C452.27362367 50.37280707 449.87832703 55.85905552 447.48828125 61.34765625 C446.96287247 62.55421875 446.96287247 62.55421875 446.42684937 63.78515625 C445.73261203 65.37956299 445.03840791 66.97398419 444.34423828 68.56842041 C442.61245497 72.54494486 440.87845806 76.5205036 439.14453125 80.49609375 C435.28379749 89.34874908 431.42448621 98.20202396 427.56552124 107.05545044 C425.79373853 111.12032544 424.02186475 115.18516076 422.25 119.25 C421.54166623 120.87499981 420.83333289 122.49999981 420.125 124.125 C413.04166667 140.375 405.95833333 156.625 398.875 172.875 C398.34903984 174.08161537 398.34903984 174.08161537 397.81245422 175.31260681 C397.10427523 176.93725154 396.39609449 178.5618955 395.68791199 180.1865387 C393.91470284 184.25446812 392.14152436 188.3224109 390.3684082 192.39038086 C387.20929376 199.6380964 384.04999147 206.88572964 380.88949585 214.13284302 C372.91561767 232.41724714 364.95154058 250.70586957 357 269 C348.7048105 288.0847644 340.3951742 307.16318514 332.07666016 326.23779297 C328.90534241 333.50993651 325.73550246 340.78272423 322.56552124 348.05545044 C320.79373853 352.12032544 319.02186475 356.18516076 317.25 360.25 C316.54166623 361.87499981 315.83333289 363.49999981 315.125 365.125 C310.875 374.875 310.875 374.875 309.81274414 377.31192017 C309.10357772 378.93884454 308.39443062 380.56577734 307.68530273 382.19271851 C305.92737301 386.22584445 304.16912063 390.25882908 302.41015625 394.29150391 C299.06821327 401.95434385 295.7299039 409.618719 292.40197754 417.28765869 C290.81791982 420.93748753 289.23215073 424.58657162 287.64624023 428.2355957 C286.88577651 429.98668694 286.12616505 431.73814857 285.36743164 433.48999023 C284.31998061 435.9083117 283.26968465 438.32537834 282.21875 440.7421875 C281.90607178 441.46618744 281.59339355 442.19018738 281.27124023 442.93612671 C279.11386608 447.88613392 279.11386608 447.88613392 278 449 C275.44410112 449.09506052 272.91532028 449.12556761 270.35913086 449.11352539 C269.15922264 449.11374443 269.15922264 449.11374443 267.93507385 449.1139679 C265.27830335 449.11326855 262.62160207 449.10547518 259.96484375 449.09765625 C258.12781309 449.09579215 256.29078194 449.09436821 254.45375061 449.09336853 C249.60890338 449.08954275 244.76408592 449.07971196 239.91925049 449.06866455 C234.97937422 449.05845172 230.03949315 449.05387119 225.09960938 449.04882812 C215.39972647 449.03808974 205.69986571 449.0210126 196 449 C192.97182604 443.04459917 190.06682657 437.07040293 187.42578125 430.93359375 C187.10487518 430.19451782 186.78396912 429.45544189 186.45333862 428.69396973 C185.76396026 427.10556615 185.07579786 425.51663438 184.38876343 423.92721558 C182.50696048 419.57404888 180.61594787 415.22487968 178.7265625 410.875 C178.33528671 409.97345688 177.94401093 409.07191376 177.5408783 408.14305115 C173.81749455 399.56792326 170.05824951 391.00874086 166.29354858 382.45169067 C159.06246715 366.01451263 151.88522448 349.55447764 144.7333374 333.08270264 C138.4207269 318.5457599 132.07210754 304.02512395 125.69335938 289.51708984 C120.27279389 277.18791398 114.87582717 264.84874716 109.5 252.5 C103.69072937 239.15603449 97.85569032 225.82365966 92 212.5 C86.12598909 199.13361049 80.26877156 185.76009383 74.4375 172.375 C74.08831512 171.57350525 73.73913025 170.7720105 73.37936401 169.94622803 C70.56788488 163.49233067 67.7578468 157.03780612 64.94787598 150.58325195 C62.48676491 144.9302046 60.02506984 139.27741205 57.5625 133.625 C57.21339569 132.82366638 56.86429138 132.02233276 56.50460815 131.19671631 C50.65075629 117.76248119 44.76500199 104.34240787 38.86904907 90.92660522 C32.60272196 76.66691447 26.36449247 62.39518235 20.15063477 48.11254883 C16.72470673 40.23968815 13.28765791 32.37206508 9.82421875 24.515625 C9.16171906 23.01052657 8.49928272 21.50540024 7.83691406 20.00024414 C6.59925241 17.18780246 5.35704811 14.37742847 4.11230469 11.56811523 C3.56295621 10.32023549 3.01379127 9.07227493 2.46484375 7.82421875 C1.986521 6.74229248 1.50819824 5.66036621 1.01538086 4.5456543 C0 2 0 2 0 0 Z " fill="#FEFEFE" transform="translate(906,668)"/>
<path d="M0 0 C19.8 0 39.6 0 60 0 C60 115.5 60 231 60 350 C41.19 350 22.38 350 3 350 C2.67 340.43 2.34 330.86 2 321 C-0.64 323.64 -3.28 326.28 -6 329 C-8.19336094 330.78178622 -10.32087095 332.45093368 -12.625 334.0625 C-13.52158325 334.69128052 -13.52158325 334.69128052 -14.4362793 335.33276367 C-41.72547733 354.01748496 -76.57841838 357.45804734 -108.54785156 351.52734375 C-130.16390694 347.06360765 -150.56884264 337.93112193 -167 323 C-167.77923828 322.29447998 -167.77923828 322.29447998 -168.57421875 321.57470703 C-192.38030976 299.74067641 -205.79440314 268.31024325 -207.875 236.234375 C-209.35348838 197.97848806 -201.17714961 162.13434705 -174.92578125 133.11328125 C-153.20091821 109.74933911 -122.04261934 96.3292524 -90.24755859 94.87402344 C-60.06829117 94.07863991 -31.75610007 98.70352615 -8 119 C-5.69 121.31 -3.38 123.62 -1 126 C-0.505 63.63 -0.505 63.63 0 0 Z M-128.09765625 168.65234375 C-144.61706209 189.03871523 -148.70355111 211.26611595 -147 237 C-145.34476274 252.42844603 -138.40319119 267.51025328 -128 279 C-127.12988281 280.00740234 -127.12988281 280.00740234 -126.2421875 281.03515625 C-114.3039577 293.99737647 -96.27322877 301.56990398 -78.7734375 302.3359375 C-57.54920689 302.69415236 -37.65184654 298.30459358 -21.953125 283.12744141 C-5.57635461 266.58622283 1.28867618 247.00127737 1.5 224 C1.29181732 201.34061666 -5.25728397 182.06881437 -21.3046875 165.640625 C-37.0114272 150.68660446 -56.04502027 145.48645891 -77.2890625 145.78515625 C-96.57233442 146.41694436 -114.84540543 154.55956962 -128.09765625 168.65234375 Z " fill="#0E86D4" transform="translate(1806,1396)"/>
<path d="M0 0 C2.43035345 2.22373508 4.79951726 4.50671207 7.17285156 6.79125977 C8.0171875 7.56083008 8.86152344 8.33040039 9.73144531 9.12329102 C10.84712891 10.16549805 10.84712891 10.16549805 11.98535156 11.22875977 C12.95408203 12.12401367 12.95408203 12.12401367 13.94238281 13.03735352 C15.17285156 14.79125977 15.17285156 14.79125977 14.93725586 16.70654297 C14.04882265 19.12951683 13.07540421 20.17314339 11.17285156 21.90063477 C10.22490723 22.77401489 10.22490723 22.77401489 9.2578125 23.66503906 C8.56977539 24.28419189 7.88173828 24.90334473 7.17285156 25.54125977 C5.71936532 26.87550176 4.26625342 28.21015165 2.81347656 29.54516602 C1.67555664 30.58374756 1.67555664 30.58374756 0.51464844 31.64331055 C-3.38347612 35.21875882 -7.22876782 38.84995138 -11.07714844 42.47875977 C-11.79128906 43.14939453 -12.50542969 43.8200293 -13.24121094 44.51098633 C-13.91410156 45.14359375 -14.58699219 45.77620117 -15.28027344 46.42797852 C-15.90611328 47.01240723 -16.53195312 47.59683594 -17.17675781 48.19897461 C-18.53373217 49.50817383 -19.81044746 50.90004975 -21.06152344 52.31079102 C-22.82714844 53.79125977 -22.82714844 53.79125977 -24.83886719 53.78344727 C-27.35190013 52.52939939 -28.75637424 51.00383393 -30.63964844 48.91625977 C-44.70415252 34.46107502 -62.51260542 25.14177326 -81.82714844 19.79125977 C-82.9628125 19.47157227 -84.09847656 19.15188477 -85.26855469 18.82250977 C-116.3736918 11.57471083 -150.56488451 17.37856542 -177.87695312 33.57495117 C-201.16555491 48.09971508 -217.78335653 70.9421681 -225.05371094 97.38891602 C-232.47209731 130.02232273 -229.83867918 163.4896189 -212.82714844 192.79125977 C-197.70509648 216.24903299 -175.83704178 232.59819262 -149.20214844 240.60375977 C-148.23680176 240.89609497 -148.23680176 240.89609497 -147.25195312 241.19433594 C-115.49258935 250.15281386 -81.49405947 245.64375468 -52.94433594 229.69360352 C-44.40929872 224.4848778 -36.87924725 218.21602089 -29.74682617 211.24536133 C-26.14251941 207.79125977 -26.14251941 207.79125977 -22.82714844 207.79125977 C-21.06542969 209.29516602 -21.06542969 209.29516602 -19.13964844 211.35375977 C-16.56161746 214.03453835 -13.98271416 216.58142892 -11.13964844 218.97875977 C-6.73466566 222.75818286 -2.70162919 226.8801854 1.36791992 231.01245117 C5.00077273 234.68207482 8.72966238 238.11671707 12.78222656 241.32641602 C14.53206794 243.1696478 14.90839816 244.26742941 15.17285156 246.79125977 C13.99560547 248.61547852 13.99560547 248.61547852 12.14941406 250.47875977 C11.46717773 251.17146973 10.78494141 251.86417969 10.08203125 252.57788086 C9.32825195 253.3082959 8.57447266 254.03871094 7.79785156 254.79125977 C7.02344727 255.54874512 6.24904297 256.30623047 5.45117188 257.08666992 C-18.44255236 279.94006392 -49.45324498 293.24447052 -81.82714844 298.79125977 C-82.48650391 298.90695312 -83.14585937 299.02264648 -83.82519531 299.1418457 C-131.80732325 307.09168696 -183.96755469 296.72813221 -223.88964844 268.79125977 C-231.05263811 263.63300881 -237.51549596 257.95634266 -243.82714844 251.79125977 C-245.08205078 250.62916992 -245.08205078 250.62916992 -246.36230469 249.44360352 C-276.97834224 220.38020178 -291.80454701 177.15070506 -292.95214844 135.69360352 C-293.75227127 93.05037046 -281.17075386 52.11112638 -252.82714844 19.79125977 C-252.11042969 18.95336914 -251.39371094 18.11547852 -250.65527344 17.25219727 C-233.20294898 -2.73752188 -210.50663946 -17.64965732 -185.82714844 -27.20874023 C-185.15699707 -27.47138672 -184.4868457 -27.7340332 -183.79638672 -28.00463867 C-125.19661137 -50.48849841 -47.73639857 -42.65322029 0 0 Z " fill="#0E86D4" transform="translate(790.8271484375,1450.208740234375)"/>
<path d="M0 0 C3.57438817 3.07887498 6.9552557 6.33360932 10.33154297 9.62695312 C11.51490234 10.70009766 11.51490234 10.70009766 12.72216797 11.79492188 C34.22332028 31.83008653 45.02422935 63.46294581 46.45751953 92.14819336 C47.58582798 129.14314234 38.00002434 163.14802441 12.35839844 190.50708008 C-9.0050505 212.75973474 -37.9451804 226.51009897 -68.66845703 229.62695312 C-69.71904297 229.73652344 -70.76962891 229.84609375 -71.85205078 229.95898438 C-109.74965387 233.37113351 -148.63978884 225.0731747 -178.38720703 200.36914062 C-180.86737504 198.17220168 -183.27404012 195.91674005 -185.66845703 193.62695312 C-186.77253906 192.63501953 -186.77253906 192.63501953 -187.89892578 191.62304688 C-209.23765525 171.71948859 -221.59989834 140.37590412 -222.79443359 111.59130859 C-223.60519313 76.90824723 -217.43517118 44.93188271 -194.66845703 17.62695312 C-193.87181641 16.655 -193.07517578 15.68304687 -192.25439453 14.68164062 C-146.64741743 -38.0901788 -53.52164274 -44.04532028 0 0 Z M-134.66845703 37.62695312 C-135.80927734 38.50287109 -135.80927734 38.50287109 -136.97314453 39.39648438 C-151.83762774 51.61210639 -159.90079676 70.41190364 -162.41845703 89.18945312 C-162.5318723 90.66661779 -162.61189567 92.146521 -162.66845703 93.62695312 C-162.70841797 94.67109375 -162.74837891 95.71523437 -162.78955078 96.79101562 C-163.24770966 121.10038694 -156.4760899 142.12607902 -139.58251953 159.81054688 C-123.89069495 174.77319745 -104.51969509 179.20060848 -83.42626953 178.89648438 C-64.74326926 178.27001443 -48.70799983 171.00372548 -35.66845703 157.62695312 C-34.90017578 156.89089844 -34.13189453 156.15484375 -33.34033203 155.39648438 C-19.77563693 141.62416639 -14.43968496 122.48677658 -13.63720703 103.56835938 C-13.83056817 79.1806856 -20.11794936 59.27131377 -37.66845703 41.62695312 C-38.25755859 41.00304688 -38.84666016 40.37914062 -39.45361328 39.73632812 C-48.10457542 31.29451012 -60.94050829 25.90843512 -72.66845703 23.62695312 C-73.57466797 23.44519531 -74.48087891 23.2634375 -75.41455078 23.07617188 C-96.5914873 20.1525852 -117.71345974 24.28118793 -134.66845703 37.62695312 Z " fill="#0E86D4" transform="translate(1196.66845703125,1519.373046875)"/>
<path d="M0 0 C19.8 0 39.6 0 60 0 C60.029729 6.3721582 60.029729 6.3721582 60.06005859 12.87304688 C60.12713725 26.95063646 60.20467747 41.02815431 60.28752708 55.10565948 C60.33747755 63.63601419 60.38392121 72.16636013 60.421875 80.69677734 C60.45499569 88.13885922 60.49493483 95.58086927 60.54279006 103.02287149 C60.56785733 106.95701132 60.58969483 110.89110474 60.60334396 114.82530212 C60.61634654 118.54190855 60.63858841 122.25835415 60.66738319 125.97487068 C60.68052187 127.96131885 60.68434491 129.94782212 60.68769836 131.93431091 C60.86751634 151.66975993 63.14774187 172.13246463 77.09765625 187.27734375 C89.57489196 199.09440826 105.45503343 202.37570096 122.1484375 202.21484375 C140.70470316 201.17975794 156.66506221 194.85846381 169.75 181.375 C183.46741018 165.27728787 186.11223207 144.82988236 186.20532227 124.42382812 C186.21491681 123.06305657 186.22492778 121.7022879 186.23532104 120.34152222 C186.26220557 116.66857793 186.28330349 112.995621 186.30332303 109.32263374 C186.32528487 105.47625591 186.35262337 101.62991627 186.37937927 97.78356934 C186.42916895 90.50941704 186.47415833 83.23524339 186.51740164 75.96104956 C186.57615545 66.12474666 186.64236805 56.2884941 186.70815182 46.45223618 C186.81151163 30.96819144 186.90494346 15.48410309 187 0 C206.8 0 226.6 0 247 0 C247 83.16 247 166.32 247 252 C228.19 252 209.38 252 190 252 C189.67 242.43 189.34 232.86 189 223 C186.03 225.97 183.06 228.94 180 232 C155.09574008 252.05590944 124.05473351 258.30458118 92.75 255.25 C66.04148842 252.33054299 40.6494495 242.34666162 22.82421875 221.44921875 C11.73765167 206.91828131 5.36650911 190.90487882 2.25 173 C2.13422607 172.33766357 2.01845215 171.67532715 1.89916992 170.99291992 C-0.07863465 158.33045858 -0.14906037 145.38189686 -0.11352539 132.59765625 C-0.11324228 131.13718671 -0.11340367 129.67671702 -0.1139679 128.21624756 C-0.11425103 124.30821585 -0.10843371 120.40021577 -0.10139394 116.49219131 C-0.09507871 112.38696713 -0.09455021 108.28174196 -0.09336853 104.17651367 C-0.09027903 96.42802599 -0.08209824 88.67955268 -0.07201904 80.93107128 C-0.06078332 72.09894766 -0.05532878 63.2668233 -0.05032361 54.43469429 C-0.03991323 36.28978643 -0.0215979 18.14489823 0 0 Z " fill="#0E86D4" transform="translate(1296,1494)"/>
<path d="M0 0 C19.47 0 38.94 0 59 0 C59 115.5 59 231 59 350 C39.53 350 20.06 350 0 350 C0 234.5 0 119 0 0 Z " fill="#0E86D4" transform="translate(859,1396)"/>
</svg>
